<mxfile host="app.diagrams.net" agent="Mozilla/5.0 (X11; Ubuntu; Linux x86_64; rv:138.0) Gecko/20100101 Firefox/138.0" version="27.0.9">
  <diagram name="Page-1" id="5OfQK5ZHzJ9iD1R55TXK">
    <mxGraphModel dx="2109" dy="2654" grid="1" gridSize="10" guides="1" tooltips="1" connect="1" arrows="1" fold="1" page="1" pageScale="1" pageWidth="827" pageHeight="1169" math="0" shadow="0">
      <root>
        <mxCell id="0" />
        <mxCell id="1" parent="0" />
        <mxCell id="e6aKUfLswlS-T_i5iN78-118" value="" style="group" vertex="1" connectable="0" parent="1">
          <mxGeometry x="1680" y="-120" width="790" height="530" as="geometry" />
        </mxCell>
        <mxCell id="e6aKUfLswlS-T_i5iN78-119" value="" style="rounded=1;whiteSpace=wrap;html=1;" vertex="1" parent="e6aKUfLswlS-T_i5iN78-118">
          <mxGeometry width="790" height="530" as="geometry" />
        </mxCell>
        <mxCell id="e6aKUfLswlS-T_i5iN78-120" value="Nagios" style="text;strokeColor=none;fillColor=none;html=1;align=center;verticalAlign=middle;whiteSpace=wrap;rounded=0;fontSize=16;" vertex="1" parent="e6aKUfLswlS-T_i5iN78-118">
          <mxGeometry x="260.71396825396823" y="30" width="268.57142857142856" height="30" as="geometry" />
        </mxCell>
        <mxCell id="e6aKUfLswlS-T_i5iN78-128" value="" style="rounded=1;whiteSpace=wrap;html=1;" vertex="1" parent="e6aKUfLswlS-T_i5iN78-118">
          <mxGeometry x="510" y="80" width="200" height="290" as="geometry" />
        </mxCell>
        <mxCell id="e6aKUfLswlS-T_i5iN78-129" value="Nagiosgraph" style="text;strokeColor=none;fillColor=none;html=1;align=center;verticalAlign=middle;whiteSpace=wrap;rounded=0;fontSize=16;" vertex="1" parent="e6aKUfLswlS-T_i5iN78-118">
          <mxGeometry x="570.2070588235292" y="95.65" width="79.59000000000002" height="24.78" as="geometry" />
        </mxCell>
        <mxCell id="e6aKUfLswlS-T_i5iN78-156" value="" style="group" vertex="1" connectable="0" parent="e6aKUfLswlS-T_i5iN78-118">
          <mxGeometry x="520" y="130" width="180" height="230" as="geometry" />
        </mxCell>
        <mxCell id="e6aKUfLswlS-T_i5iN78-152" value="" style="rounded=1;whiteSpace=wrap;html=1;" vertex="1" parent="e6aKUfLswlS-T_i5iN78-156">
          <mxGeometry width="180.00000000000003" height="230" as="geometry" />
        </mxCell>
        <mxCell id="e6aKUfLswlS-T_i5iN78-153" value="RRDTool" style="text;strokeColor=none;fillColor=none;html=1;align=center;verticalAlign=middle;whiteSpace=wrap;rounded=0;fontSize=16;" vertex="1" parent="e6aKUfLswlS-T_i5iN78-156">
          <mxGeometry x="55.89176470588228" y="17.692307692307693" width="68.22000000000003" height="21.920769230769235" as="geometry" />
        </mxCell>
        <mxCell id="e6aKUfLswlS-T_i5iN78-154" value="&lt;div&gt;&lt;span style=&quot;color: light-dark(rgb(0, 0, 0), rgb(255, 255, 255));&quot;&gt;Storage Time-Series&lt;/span&gt;&lt;/div&gt;" style="rounded=0;fillColor=#1ba1e2;fontColor=light-dark(#FFFFFF,#FBFBFB);strokeColor=#006EAF;labelBackgroundColor=none;labelBorderColor=none;textShadow=0;whiteSpace=wrap;html=1;" vertex="1" parent="e6aKUfLswlS-T_i5iN78-156">
          <mxGeometry x="14.159999999999854" y="60" width="150" height="60" as="geometry" />
        </mxCell>
        <mxCell id="e6aKUfLswlS-T_i5iN78-155" value="Graphs" style="rounded=0;fillColor=#1ba1e2;fontColor=light-dark(#FFFFFF,#FBFBFB);strokeColor=#006EAF;labelBackgroundColor=none;labelBorderColor=none;textShadow=0;whiteSpace=wrap;html=1;" vertex="1" parent="e6aKUfLswlS-T_i5iN78-156">
          <mxGeometry x="14.16000000000031" y="135" width="151.68" height="60" as="geometry" />
        </mxCell>
        <mxCell id="e6aKUfLswlS-T_i5iN78-92" value="" style="group" vertex="1" connectable="0" parent="1">
          <mxGeometry x="820" y="-120" width="790" height="530" as="geometry" />
        </mxCell>
        <mxCell id="e6aKUfLswlS-T_i5iN78-41" value="" style="rounded=1;whiteSpace=wrap;html=1;" vertex="1" parent="e6aKUfLswlS-T_i5iN78-92">
          <mxGeometry width="790" height="530" as="geometry" />
        </mxCell>
        <mxCell id="e6aKUfLswlS-T_i5iN78-42" value="Zabbix" style="text;strokeColor=none;fillColor=none;html=1;align=center;verticalAlign=middle;whiteSpace=wrap;rounded=0;fontSize=16;" vertex="1" parent="e6aKUfLswlS-T_i5iN78-92">
          <mxGeometry x="260.71396825396823" y="30" width="268.57142857142856" height="30" as="geometry" />
        </mxCell>
        <mxCell id="e6aKUfLswlS-T_i5iN78-44" value="" style="rounded=1;whiteSpace=wrap;html=1;" vertex="1" parent="e6aKUfLswlS-T_i5iN78-92">
          <mxGeometry x="520" y="280" width="170" height="210" as="geometry" />
        </mxCell>
        <mxCell id="e6aKUfLswlS-T_i5iN78-45" value="&lt;div&gt;Zabbix&amp;nbsp;&lt;/div&gt;&lt;div&gt;Web-Interface&lt;/div&gt;" style="text;strokeColor=none;fillColor=none;html=1;align=center;verticalAlign=middle;whiteSpace=wrap;rounded=0;fontSize=16;" vertex="1" parent="e6aKUfLswlS-T_i5iN78-92">
          <mxGeometry x="548.75" y="290" width="112.5" height="30" as="geometry" />
        </mxCell>
        <mxCell id="e6aKUfLswlS-T_i5iN78-47" value="Visualisation/Dashboard" style="rounded=0;fillColor=#1ba1e2;fontColor=light-dark(#FFFFFF,#FBFBFB);strokeColor=#006EAF;labelBackgroundColor=none;labelBorderColor=none;textShadow=0;whiteSpace=wrap;html=1;" vertex="1" parent="e6aKUfLswlS-T_i5iN78-92">
          <mxGeometry x="529.16" y="340" width="151.68" height="60" as="geometry" />
        </mxCell>
        <mxCell id="e6aKUfLswlS-T_i5iN78-149" value="Graphs" style="rounded=0;fillColor=#1ba1e2;fontColor=light-dark(#FFFFFF,#FBFBFB);strokeColor=#006EAF;labelBackgroundColor=none;labelBorderColor=none;textShadow=0;whiteSpace=wrap;html=1;" vertex="1" parent="e6aKUfLswlS-T_i5iN78-92">
          <mxGeometry x="529.29" y="410" width="151.68" height="60" as="geometry" />
        </mxCell>
        <mxCell id="e6aKUfLswlS-T_i5iN78-91" value="" style="group" vertex="1" connectable="0" parent="1">
          <mxGeometry x="-40" y="-120" width="790" height="530" as="geometry" />
        </mxCell>
        <mxCell id="e6aKUfLswlS-T_i5iN78-11" value="" style="rounded=1;whiteSpace=wrap;html=1;" vertex="1" parent="e6aKUfLswlS-T_i5iN78-91">
          <mxGeometry width="790" height="530" as="geometry" />
        </mxCell>
        <mxCell id="e6aKUfLswlS-T_i5iN78-12" value="Graphite + Grafana" style="text;strokeColor=none;fillColor=none;html=1;align=center;verticalAlign=middle;whiteSpace=wrap;rounded=0;fontSize=16;" vertex="1" parent="e6aKUfLswlS-T_i5iN78-91">
          <mxGeometry x="260.71396825396823" y="30" width="268.57142857142856" height="30" as="geometry" />
        </mxCell>
        <mxCell id="e6aKUfLswlS-T_i5iN78-67" style="edgeStyle=none;curved=1;rounded=0;orthogonalLoop=1;jettySize=auto;html=1;exitX=1;exitY=0.5;exitDx=0;exitDy=0;fontSize=12;startSize=8;endSize=8;entryX=0;entryY=0.5;entryDx=0;entryDy=0;" edge="1" parent="1" source="e6aKUfLswlS-T_i5iN78-55" target="e6aKUfLswlS-T_i5iN78-58">
          <mxGeometry relative="1" as="geometry">
            <mxPoint x="1340" y="50" as="targetPoint" />
          </mxGeometry>
        </mxCell>
        <mxCell id="e6aKUfLswlS-T_i5iN78-72" style="edgeStyle=none;curved=1;rounded=0;orthogonalLoop=1;jettySize=auto;html=1;entryX=1;entryY=0.25;entryDx=0;entryDy=0;fontSize=12;startSize=8;endSize=8;exitX=0;exitY=0.25;exitDx=0;exitDy=0;" edge="1" parent="1" source="e6aKUfLswlS-T_i5iN78-58" target="e6aKUfLswlS-T_i5iN78-55">
          <mxGeometry relative="1" as="geometry" />
        </mxCell>
        <mxCell id="e6aKUfLswlS-T_i5iN78-77" value="" style="group" vertex="1" connectable="0" parent="1">
          <mxGeometry x="1340.0033333333333" y="-10" width="170" height="140" as="geometry" />
        </mxCell>
        <mxCell id="e6aKUfLswlS-T_i5iN78-58" value="" style="rounded=1;whiteSpace=wrap;html=1;" vertex="1" parent="e6aKUfLswlS-T_i5iN78-77">
          <mxGeometry width="170" height="140" as="geometry" />
        </mxCell>
        <mxCell id="e6aKUfLswlS-T_i5iN78-59" value="&lt;div&gt;Mysql/Postgresql&lt;/div&gt;" style="text;strokeColor=none;fillColor=none;html=1;align=center;verticalAlign=middle;whiteSpace=wrap;rounded=0;fontSize=16;" vertex="1" parent="e6aKUfLswlS-T_i5iN78-77">
          <mxGeometry x="50.46" y="20" width="64.43" height="24.78" as="geometry" />
        </mxCell>
        <mxCell id="e6aKUfLswlS-T_i5iN78-60" value="&lt;div&gt;&lt;span style=&quot;color: light-dark(rgb(0, 0, 0), rgb(255, 255, 255));&quot;&gt;Storage Time-Series&lt;/span&gt;&lt;/div&gt;" style="rounded=0;fillColor=#1ba1e2;fontColor=light-dark(#FFFFFF,#FBFBFB);strokeColor=#006EAF;labelBackgroundColor=none;labelBorderColor=none;textShadow=0;whiteSpace=wrap;html=1;" vertex="1" parent="e6aKUfLswlS-T_i5iN78-77">
          <mxGeometry x="7.676666666666691" y="60" width="150" height="60" as="geometry" />
        </mxCell>
        <mxCell id="e6aKUfLswlS-T_i5iN78-78" style="edgeStyle=none;curved=1;rounded=0;orthogonalLoop=1;jettySize=auto;html=1;exitX=0.25;exitY=1;exitDx=0;exitDy=0;entryX=0.25;entryY=0;entryDx=0;entryDy=0;fontSize=12;startSize=8;endSize=8;" edge="1" parent="1" source="e6aKUfLswlS-T_i5iN78-58" target="e6aKUfLswlS-T_i5iN78-44">
          <mxGeometry relative="1" as="geometry" />
        </mxCell>
        <mxCell id="e6aKUfLswlS-T_i5iN78-79" style="edgeStyle=none;curved=1;rounded=0;orthogonalLoop=1;jettySize=auto;html=1;exitX=0.75;exitY=0;exitDx=0;exitDy=0;entryX=0.75;entryY=1;entryDx=0;entryDy=0;fontSize=12;startSize=8;endSize=8;" edge="1" parent="1" source="e6aKUfLswlS-T_i5iN78-44" target="e6aKUfLswlS-T_i5iN78-58">
          <mxGeometry relative="1" as="geometry" />
        </mxCell>
        <mxCell id="e6aKUfLswlS-T_i5iN78-83" value="" style="group" vertex="1" connectable="0" parent="1">
          <mxGeometry x="860" y="230" width="190" height="140" as="geometry" />
        </mxCell>
        <mxCell id="e6aKUfLswlS-T_i5iN78-50" value="" style="rounded=1;whiteSpace=wrap;html=1;" vertex="1" parent="e6aKUfLswlS-T_i5iN78-83">
          <mxGeometry width="190" height="140" as="geometry" />
        </mxCell>
        <mxCell id="e6aKUfLswlS-T_i5iN78-52" value="Collect data" style="rounded=0;fillColor=#1ba1e2;fontColor=light-dark(#FFFFFF,#FBFBFB);strokeColor=#006EAF;labelBackgroundColor=none;labelBorderColor=none;textShadow=0;whiteSpace=wrap;html=1;" vertex="1" parent="e6aKUfLswlS-T_i5iN78-83">
          <mxGeometry x="19.159999999999997" y="60" width="151.68" height="60" as="geometry" />
        </mxCell>
        <mxCell id="e6aKUfLswlS-T_i5iN78-51" value="Collectd" style="text;strokeColor=none;fillColor=none;html=1;align=center;verticalAlign=middle;whiteSpace=wrap;rounded=0;fontSize=16;" vertex="1" parent="e6aKUfLswlS-T_i5iN78-83">
          <mxGeometry x="43.75" y="10" width="102.5" height="30" as="geometry" />
        </mxCell>
        <mxCell id="e6aKUfLswlS-T_i5iN78-85" value="" style="group" vertex="1" connectable="0" parent="1">
          <mxGeometry x="1080.71" y="230" width="190" height="140" as="geometry" />
        </mxCell>
        <mxCell id="e6aKUfLswlS-T_i5iN78-86" value="" style="rounded=1;whiteSpace=wrap;html=1;" vertex="1" parent="e6aKUfLswlS-T_i5iN78-85">
          <mxGeometry width="190" height="140" as="geometry" />
        </mxCell>
        <mxCell id="e6aKUfLswlS-T_i5iN78-87" value="Send data" style="rounded=0;fillColor=#1ba1e2;fontColor=light-dark(#FFFFFF,#FBFBFB);strokeColor=#006EAF;labelBackgroundColor=none;labelBorderColor=none;textShadow=0;whiteSpace=wrap;html=1;" vertex="1" parent="e6aKUfLswlS-T_i5iN78-85">
          <mxGeometry x="19.159999999999997" y="60" width="151.68" height="60" as="geometry" />
        </mxCell>
        <mxCell id="e6aKUfLswlS-T_i5iN78-88" value="Zabbix-sender" style="text;strokeColor=none;fillColor=none;html=1;align=center;verticalAlign=middle;whiteSpace=wrap;rounded=0;fontSize=16;" vertex="1" parent="e6aKUfLswlS-T_i5iN78-85">
          <mxGeometry x="43.75" y="10" width="102.5" height="30" as="geometry" />
        </mxCell>
        <mxCell id="e6aKUfLswlS-T_i5iN78-89" style="edgeStyle=none;curved=1;rounded=0;orthogonalLoop=1;jettySize=auto;html=1;exitX=1;exitY=0.5;exitDx=0;exitDy=0;fontSize=12;startSize=8;endSize=8;" edge="1" parent="1" source="e6aKUfLswlS-T_i5iN78-50" target="e6aKUfLswlS-T_i5iN78-86">
          <mxGeometry relative="1" as="geometry" />
        </mxCell>
        <mxCell id="e6aKUfLswlS-T_i5iN78-90" style="edgeStyle=none;curved=1;rounded=0;orthogonalLoop=1;jettySize=auto;html=1;exitX=0.5;exitY=0;exitDx=0;exitDy=0;entryX=0.75;entryY=1;entryDx=0;entryDy=0;fontSize=12;startSize=8;endSize=8;" edge="1" parent="1" source="e6aKUfLswlS-T_i5iN78-86" target="e6aKUfLswlS-T_i5iN78-55">
          <mxGeometry relative="1" as="geometry" />
        </mxCell>
        <mxCell id="e6aKUfLswlS-T_i5iN78-38" style="edgeStyle=none;curved=1;rounded=0;orthogonalLoop=1;jettySize=auto;html=1;exitX=1;exitY=0.5;exitDx=0;exitDy=0;entryX=0;entryY=0.25;entryDx=0;entryDy=0;fontSize=12;startSize=8;endSize=8;" edge="1" parent="1" source="e6aKUfLswlS-T_i5iN78-1" target="e6aKUfLswlS-T_i5iN78-20">
          <mxGeometry relative="1" as="geometry" />
        </mxCell>
        <mxCell id="e6aKUfLswlS-T_i5iN78-39" style="edgeStyle=none;curved=1;rounded=0;orthogonalLoop=1;jettySize=auto;html=1;exitX=0.5;exitY=0;exitDx=0;exitDy=0;fontSize=12;startSize=8;endSize=8;" edge="1" parent="1" source="e6aKUfLswlS-T_i5iN78-32" target="e6aKUfLswlS-T_i5iN78-1">
          <mxGeometry relative="1" as="geometry" />
        </mxCell>
        <mxCell id="e6aKUfLswlS-T_i5iN78-32" value="" style="rounded=1;whiteSpace=wrap;html=1;" vertex="1" parent="1">
          <mxGeometry x="20" y="220" width="360" height="140" as="geometry" />
        </mxCell>
        <mxCell id="e6aKUfLswlS-T_i5iN78-33" value="Collectd" style="text;strokeColor=none;fillColor=none;html=1;align=center;verticalAlign=middle;whiteSpace=wrap;rounded=0;fontSize=16;" vertex="1" parent="1">
          <mxGeometry x="170" y="230" width="60" height="30" as="geometry" />
        </mxCell>
        <mxCell id="e6aKUfLswlS-T_i5iN78-35" value="Collect data" style="rounded=0;fillColor=#1ba1e2;fontColor=light-dark(#FFFFFF,#FBFBFB);strokeColor=#006EAF;labelBackgroundColor=none;labelBorderColor=none;textShadow=0;whiteSpace=wrap;html=1;" vertex="1" parent="1">
          <mxGeometry x="38.31999999999999" y="270" width="151.68" height="60" as="geometry" />
        </mxCell>
        <mxCell id="e6aKUfLswlS-T_i5iN78-37" value="Send data" style="rounded=0;fillColor=#1ba1e2;fontColor=light-dark(#FFFFFF,#FBFBFB);strokeColor=#006EAF;labelBackgroundColor=none;labelBorderColor=none;textShadow=0;whiteSpace=wrap;html=1;" vertex="1" parent="1">
          <mxGeometry x="210.00000000000003" y="270" width="151.68" height="60" as="geometry" />
        </mxCell>
        <mxCell id="e6aKUfLswlS-T_i5iN78-1" value="" style="rounded=1;whiteSpace=wrap;html=1;movable=1;resizable=1;rotatable=1;deletable=1;editable=1;locked=0;connectable=1;" vertex="1" parent="1">
          <mxGeometry x="10" y="-20" width="380" height="200" as="geometry" />
        </mxCell>
        <mxCell id="e6aKUfLswlS-T_i5iN78-2" value="Graphite" style="text;strokeColor=none;fillColor=none;html=1;align=center;verticalAlign=middle;whiteSpace=wrap;rounded=0;fontSize=16;movable=1;resizable=1;rotatable=1;deletable=1;editable=1;locked=0;connectable=1;" vertex="1" parent="1">
          <mxGeometry x="150.00379310344826" y="-7.39130434782609" width="95.17241379310346" height="37.826086956521735" as="geometry" />
        </mxCell>
        <mxCell id="e6aKUfLswlS-T_i5iN78-16" value="" style="group" vertex="1" connectable="0" parent="1">
          <mxGeometry x="30.00333333333333" y="40" width="165.35333333333332" height="120" as="geometry" />
        </mxCell>
        <mxCell id="e6aKUfLswlS-T_i5iN78-17" value="" style="rounded=1;whiteSpace=wrap;html=1;" vertex="1" parent="e6aKUfLswlS-T_i5iN78-16">
          <mxGeometry width="165.35333333333332" height="120" as="geometry" />
        </mxCell>
        <mxCell id="e6aKUfLswlS-T_i5iN78-18" value="&lt;div&gt;Whisper&lt;/div&gt;" style="text;strokeColor=none;fillColor=none;html=1;align=center;verticalAlign=middle;whiteSpace=wrap;rounded=0;fontSize=16;" vertex="1" parent="e6aKUfLswlS-T_i5iN78-16">
          <mxGeometry x="65.57114942528736" y="5.217391304347826" width="34.21103448275862" height="15.652173913043478" as="geometry" />
        </mxCell>
        <mxCell id="e6aKUfLswlS-T_i5iN78-24" value="&lt;div&gt;&lt;span style=&quot;color: light-dark(rgb(0, 0, 0), rgb(255, 255, 255));&quot;&gt;Storage Time-Series&lt;/span&gt;&lt;/div&gt;" style="rounded=0;fillColor=#1ba1e2;fontColor=light-dark(#FFFFFF,#FBFBFB);strokeColor=#006EAF;labelBackgroundColor=none;labelBorderColor=none;textShadow=0;whiteSpace=wrap;html=1;" vertex="1" parent="e6aKUfLswlS-T_i5iN78-16">
          <mxGeometry x="7.676666666666691" y="40" width="150" height="60" as="geometry" />
        </mxCell>
        <mxCell id="e6aKUfLswlS-T_i5iN78-26" value="" style="group" vertex="1" connectable="0" parent="1">
          <mxGeometry x="210" y="40" width="165.35333333333332" height="120" as="geometry" />
        </mxCell>
        <mxCell id="e6aKUfLswlS-T_i5iN78-27" value="" style="rounded=1;whiteSpace=wrap;html=1;" vertex="1" parent="e6aKUfLswlS-T_i5iN78-26">
          <mxGeometry width="165.35333333333332" height="120" as="geometry" />
        </mxCell>
        <mxCell id="e6aKUfLswlS-T_i5iN78-28" value="Carbon" style="text;strokeColor=none;fillColor=none;html=1;align=center;verticalAlign=middle;whiteSpace=wrap;rounded=0;fontSize=16;" vertex="1" parent="e6aKUfLswlS-T_i5iN78-26">
          <mxGeometry x="65.57114942528736" y="5.217391304347826" width="34.21103448275862" height="15.652173913043478" as="geometry" />
        </mxCell>
        <mxCell id="e6aKUfLswlS-T_i5iN78-29" value="&lt;div&gt;Metrics management&lt;/div&gt;" style="rounded=0;fillColor=#1ba1e2;fontColor=light-dark(#FFFFFF,#FBFBFB);strokeColor=#006EAF;labelBackgroundColor=none;labelBorderColor=none;textShadow=0;whiteSpace=wrap;html=1;" vertex="1" parent="e6aKUfLswlS-T_i5iN78-26">
          <mxGeometry x="7.676666666666691" y="40" width="150" height="60" as="geometry" />
        </mxCell>
        <mxCell id="e6aKUfLswlS-T_i5iN78-73" style="edgeStyle=none;curved=1;rounded=0;orthogonalLoop=1;jettySize=auto;html=1;exitX=0;exitY=0.25;exitDx=0;exitDy=0;entryX=1;entryY=0.25;entryDx=0;entryDy=0;fontSize=12;startSize=8;endSize=8;" edge="1" parent="1" source="e6aKUfLswlS-T_i5iN78-27" target="e6aKUfLswlS-T_i5iN78-17">
          <mxGeometry relative="1" as="geometry" />
        </mxCell>
        <mxCell id="e6aKUfLswlS-T_i5iN78-74" style="edgeStyle=none;curved=1;rounded=0;orthogonalLoop=1;jettySize=auto;html=1;exitX=1;exitY=0.75;exitDx=0;exitDy=0;entryX=0;entryY=0.75;entryDx=0;entryDy=0;fontSize=12;startSize=8;endSize=8;" edge="1" parent="1" source="e6aKUfLswlS-T_i5iN78-17" target="e6aKUfLswlS-T_i5iN78-27">
          <mxGeometry relative="1" as="geometry" />
        </mxCell>
        <mxCell id="e6aKUfLswlS-T_i5iN78-20" value="" style="rounded=1;whiteSpace=wrap;html=1;" vertex="1" parent="1">
          <mxGeometry x="460" y="-20" width="170" height="370" as="geometry" />
        </mxCell>
        <mxCell id="e6aKUfLswlS-T_i5iN78-21" value="Grafana" style="text;strokeColor=none;fillColor=none;html=1;align=center;verticalAlign=middle;whiteSpace=wrap;rounded=0;fontSize=16;" vertex="1" parent="1">
          <mxGeometry x="515" y="-10" width="60" height="30" as="geometry" />
        </mxCell>
        <mxCell id="e6aKUfLswlS-T_i5iN78-22" value="&lt;div&gt;Alerting&lt;/div&gt;" style="rounded=0;fillColor=#1ba1e2;fontColor=light-dark(#FFFFFF,#FBFBFB);strokeColor=#006EAF;labelBackgroundColor=none;labelBorderColor=none;textShadow=0;whiteSpace=wrap;html=1;" vertex="1" parent="1">
          <mxGeometry x="466.64" y="190" width="153.36" height="60" as="geometry" />
        </mxCell>
        <mxCell id="e6aKUfLswlS-T_i5iN78-25" value="Visualisation/Dashboard" style="rounded=0;fillColor=#1ba1e2;fontColor=light-dark(#FFFFFF,#FBFBFB);strokeColor=#006EAF;labelBackgroundColor=none;labelBorderColor=none;textShadow=0;whiteSpace=wrap;html=1;" vertex="1" parent="1">
          <mxGeometry x="468.32" y="30" width="151.68" height="60" as="geometry" />
        </mxCell>
        <mxCell id="e6aKUfLswlS-T_i5iN78-30" value="Users Management" style="rounded=0;fillColor=#1ba1e2;fontColor=light-dark(#FFFFFF,#FBFBFB);strokeColor=#006EAF;labelBackgroundColor=none;labelBorderColor=none;textShadow=0;whiteSpace=wrap;html=1;" vertex="1" parent="1">
          <mxGeometry x="466.64000000000004" y="270" width="153.36" height="60" as="geometry" />
        </mxCell>
        <mxCell id="e6aKUfLswlS-T_i5iN78-55" value="" style="rounded=1;whiteSpace=wrap;html=1;movable=1;resizable=1;rotatable=1;deletable=1;editable=1;locked=0;connectable=1;" vertex="1" parent="1">
          <mxGeometry x="870" y="-20" width="380" height="200" as="geometry" />
        </mxCell>
        <mxCell id="e6aKUfLswlS-T_i5iN78-56" value="Zabbix-serveur" style="text;strokeColor=none;fillColor=none;html=1;align=center;verticalAlign=middle;whiteSpace=wrap;rounded=0;fontSize=16;movable=1;resizable=1;rotatable=1;deletable=1;editable=1;locked=0;connectable=1;" vertex="1" parent="1">
          <mxGeometry x="1000" y="-10" width="120" height="37.83" as="geometry" />
        </mxCell>
        <mxCell id="e6aKUfLswlS-T_i5iN78-64" value="&lt;div&gt;Metrics management&lt;/div&gt;" style="rounded=0;fillColor=#1ba1e2;fontColor=light-dark(#FFFFFF,#FBFBFB);strokeColor=#006EAF;labelBackgroundColor=none;labelBorderColor=none;textShadow=0;whiteSpace=wrap;html=1;" vertex="1" parent="1">
          <mxGeometry x="889.9966666666667" y="27.83" width="150" height="60" as="geometry" />
        </mxCell>
        <mxCell id="e6aKUfLswlS-T_i5iN78-46" value="&lt;div&gt;Alerting&lt;/div&gt;" style="rounded=0;fillColor=#1ba1e2;fontColor=light-dark(#FFFFFF,#FBFBFB);strokeColor=#006EAF;labelBackgroundColor=none;labelBorderColor=none;textShadow=0;whiteSpace=wrap;html=1;" vertex="1" parent="1">
          <mxGeometry x="1070" y="27.83" width="153.36" height="60" as="geometry" />
        </mxCell>
        <mxCell id="e6aKUfLswlS-T_i5iN78-48" value="Users Management" style="rounded=0;fillColor=#1ba1e2;fontColor=light-dark(#FFFFFF,#FBFBFB);strokeColor=#006EAF;labelBackgroundColor=none;labelBorderColor=none;textShadow=0;whiteSpace=wrap;html=1;" vertex="1" parent="1">
          <mxGeometry x="980" y="100" width="153.36" height="60" as="geometry" />
        </mxCell>
        <mxCell id="e6aKUfLswlS-T_i5iN78-121" style="edgeStyle=none;curved=1;rounded=0;orthogonalLoop=1;jettySize=auto;html=1;exitX=1;exitY=0.5;exitDx=0;exitDy=0;fontSize=12;startSize=8;endSize=8;entryX=0;entryY=0.5;entryDx=0;entryDy=0;" edge="1" parent="1" source="e6aKUfLswlS-T_i5iN78-143" target="e6aKUfLswlS-T_i5iN78-128">
          <mxGeometry relative="1" as="geometry">
            <mxPoint x="2200" y="50" as="targetPoint" />
          </mxGeometry>
        </mxCell>
        <mxCell id="e6aKUfLswlS-T_i5iN78-122" style="edgeStyle=none;curved=1;rounded=0;orthogonalLoop=1;jettySize=auto;html=1;entryX=1;entryY=0.25;entryDx=0;entryDy=0;fontSize=12;startSize=8;endSize=8;exitX=0;exitY=0.25;exitDx=0;exitDy=0;" edge="1" parent="1" source="e6aKUfLswlS-T_i5iN78-128" target="e6aKUfLswlS-T_i5iN78-143">
          <mxGeometry relative="1" as="geometry" />
        </mxCell>
        <mxCell id="e6aKUfLswlS-T_i5iN78-133" value="" style="group" vertex="1" connectable="0" parent="1">
          <mxGeometry x="1720" y="230" width="190" height="140" as="geometry" />
        </mxCell>
        <mxCell id="e6aKUfLswlS-T_i5iN78-134" value="" style="rounded=1;whiteSpace=wrap;html=1;" vertex="1" parent="e6aKUfLswlS-T_i5iN78-133">
          <mxGeometry width="190" height="140" as="geometry" />
        </mxCell>
        <mxCell id="e6aKUfLswlS-T_i5iN78-135" value="Collect data" style="rounded=0;fillColor=#1ba1e2;fontColor=light-dark(#FFFFFF,#FBFBFB);strokeColor=#006EAF;labelBackgroundColor=none;labelBorderColor=none;textShadow=0;whiteSpace=wrap;html=1;" vertex="1" parent="e6aKUfLswlS-T_i5iN78-133">
          <mxGeometry x="19.159999999999997" y="60" width="151.68" height="60" as="geometry" />
        </mxCell>
        <mxCell id="e6aKUfLswlS-T_i5iN78-136" value="Collectd" style="text;strokeColor=none;fillColor=none;html=1;align=center;verticalAlign=middle;whiteSpace=wrap;rounded=0;fontSize=16;" vertex="1" parent="e6aKUfLswlS-T_i5iN78-133">
          <mxGeometry x="43.75" y="10" width="102.5" height="30" as="geometry" />
        </mxCell>
        <mxCell id="e6aKUfLswlS-T_i5iN78-137" value="" style="group" vertex="1" connectable="0" parent="1">
          <mxGeometry x="1940.71" y="230" width="190" height="140" as="geometry" />
        </mxCell>
        <mxCell id="e6aKUfLswlS-T_i5iN78-138" value="" style="rounded=1;whiteSpace=wrap;html=1;" vertex="1" parent="e6aKUfLswlS-T_i5iN78-137">
          <mxGeometry width="190" height="140" as="geometry" />
        </mxCell>
        <mxCell id="e6aKUfLswlS-T_i5iN78-139" value="Send data" style="rounded=0;fillColor=#1ba1e2;fontColor=light-dark(#FFFFFF,#FBFBFB);strokeColor=#006EAF;labelBackgroundColor=none;labelBorderColor=none;textShadow=0;whiteSpace=wrap;html=1;" vertex="1" parent="e6aKUfLswlS-T_i5iN78-137">
          <mxGeometry x="19.159999999999997" y="60" width="151.68" height="60" as="geometry" />
        </mxCell>
        <mxCell id="e6aKUfLswlS-T_i5iN78-140" value="Collectd-nagios" style="text;strokeColor=none;fillColor=none;html=1;align=center;verticalAlign=middle;whiteSpace=wrap;rounded=0;fontSize=16;" vertex="1" parent="e6aKUfLswlS-T_i5iN78-137">
          <mxGeometry x="43.75" y="10" width="102.5" height="30" as="geometry" />
        </mxCell>
        <mxCell id="e6aKUfLswlS-T_i5iN78-141" style="edgeStyle=none;curved=1;rounded=0;orthogonalLoop=1;jettySize=auto;html=1;exitX=1;exitY=0.5;exitDx=0;exitDy=0;fontSize=12;startSize=8;endSize=8;" edge="1" parent="1" source="e6aKUfLswlS-T_i5iN78-134" target="e6aKUfLswlS-T_i5iN78-138">
          <mxGeometry relative="1" as="geometry" />
        </mxCell>
        <mxCell id="e6aKUfLswlS-T_i5iN78-142" style="edgeStyle=none;curved=1;rounded=0;orthogonalLoop=1;jettySize=auto;html=1;exitX=0.5;exitY=0;exitDx=0;exitDy=0;entryX=0.75;entryY=1;entryDx=0;entryDy=0;fontSize=12;startSize=8;endSize=8;" edge="1" parent="1" source="e6aKUfLswlS-T_i5iN78-138" target="e6aKUfLswlS-T_i5iN78-143">
          <mxGeometry relative="1" as="geometry" />
        </mxCell>
        <mxCell id="e6aKUfLswlS-T_i5iN78-143" value="" style="rounded=1;whiteSpace=wrap;html=1;movable=1;resizable=1;rotatable=1;deletable=1;editable=1;locked=0;connectable=1;" vertex="1" parent="1">
          <mxGeometry x="1730" y="-20" width="380" height="200" as="geometry" />
        </mxCell>
        <mxCell id="e6aKUfLswlS-T_i5iN78-144" value="Nagios-Core" style="text;strokeColor=none;fillColor=none;html=1;align=center;verticalAlign=middle;whiteSpace=wrap;rounded=0;fontSize=16;movable=1;resizable=1;rotatable=1;deletable=1;editable=1;locked=0;connectable=1;" vertex="1" parent="1">
          <mxGeometry x="1860" y="-10" width="120" height="37.83" as="geometry" />
        </mxCell>
        <mxCell id="e6aKUfLswlS-T_i5iN78-145" value="&lt;div&gt;Metrics management&lt;/div&gt;" style="rounded=0;fillColor=#1ba1e2;fontColor=light-dark(#FFFFFF,#FBFBFB);strokeColor=#006EAF;labelBackgroundColor=none;labelBorderColor=none;textShadow=0;whiteSpace=wrap;html=1;" vertex="1" parent="1">
          <mxGeometry x="1749.996666666667" y="27.829999999999984" width="150" height="60" as="geometry" />
        </mxCell>
        <mxCell id="e6aKUfLswlS-T_i5iN78-146" value="&lt;div&gt;Alerting&lt;/div&gt;" style="rounded=0;fillColor=#1ba1e2;fontColor=light-dark(#FFFFFF,#FBFBFB);strokeColor=#006EAF;labelBackgroundColor=none;labelBorderColor=none;textShadow=0;whiteSpace=wrap;html=1;" vertex="1" parent="1">
          <mxGeometry x="1930" y="27.829999999999984" width="153.36" height="60" as="geometry" />
        </mxCell>
        <mxCell id="e6aKUfLswlS-T_i5iN78-147" value="Users Management" style="rounded=0;fillColor=#1ba1e2;fontColor=light-dark(#FFFFFF,#FBFBFB);strokeColor=#006EAF;labelBackgroundColor=none;labelBorderColor=none;textShadow=0;whiteSpace=wrap;html=1;" vertex="1" parent="1">
          <mxGeometry x="1750" y="100" width="150" height="60" as="geometry" />
        </mxCell>
        <mxCell id="e6aKUfLswlS-T_i5iN78-148" value="Graphs" style="rounded=0;fillColor=#1ba1e2;fontColor=light-dark(#FFFFFF,#FBFBFB);strokeColor=#006EAF;labelBackgroundColor=none;labelBorderColor=none;textShadow=0;whiteSpace=wrap;html=1;" vertex="1" parent="1">
          <mxGeometry x="469.15999999999997" y="110" width="151.68" height="60" as="geometry" />
        </mxCell>
        <mxCell id="e6aKUfLswlS-T_i5iN78-157" value="Visualisation/Dashboard" style="rounded=0;fillColor=#1ba1e2;fontColor=light-dark(#FFFFFF,#FBFBFB);strokeColor=#006EAF;labelBackgroundColor=none;labelBorderColor=none;textShadow=0;whiteSpace=wrap;html=1;" vertex="1" parent="1">
          <mxGeometry x="1930" y="100" width="151.68" height="60" as="geometry" />
        </mxCell>
      </root>
    </mxGraphModel>
  </diagram>
</mxfile>
